HIERARCHY
ROOT Hips
{
  OFFSET 5.84602e-005 68.8428 3.50346
  CHANNELS 6 Xposition Yposition Zposition Zrotation Xrotation Yrotation
  JOINT Spine
  {
    OFFSET 0 8.597 -4.6522
    CHANNELS 3 Zrotation Xrotation Yrotation
    JOINT Spine1
    {
      OFFSET 0 7.8454 0.4098
      CHANNELS 3 Zrotation Xrotation Yrotation
      JOINT Spine2
      {
        OFFSET 0 9.7078 -2.1609
        CHANNELS 3 Zrotation Xrotation Yrotation
        JOINT Neck
        {
          OFFSET 0 21.8761 -0.4549
          CHANNELS 3 Zrotation Xrotation Yrotation
          JOINT Head
          {
            OFFSET 0 12.3537 3.3602
            CHANNELS 3 Zrotation Xrotation Yrotation
            End Site
            {
              OFFSET 0.0001 18.9506 0.5657
            }
          }
        }
        JOINT LeftShoulder
        {
          OFFSET 2.2086 21.1115 7.2329
          CHANNELS 3 Zrotation Xrotation Yrotation
          JOINT LeftArm
          {
            OFFSET 13.1193 3.0282 -4.8998
            CHANNELS 3 Zrotation Xrotation Yrotation
            JOINT LeftForeArm
            {
              OFFSET 27.4081 -0.0973053 -0.2375
              CHANNELS 3 Zrotation Xrotation Yrotation
              JOINT LeftHand
              {
                OFFSET 22.8641 0.0662994 -0.1369
                CHANNELS 3 Zrotation Xrotation Yrotation
                JOINT LeftHandIndex1
                {
                  OFFSET 8.8614 0.775009 2.4612
                  CHANNELS 3 Zrotation Xrotation Yrotation
                  JOINT LeftHandIndex2
                  {
                    OFFSET 3.3146 -0.808304 0.5841
                    CHANNELS 3 Zrotation Xrotation Yrotation
                    JOINT LeftHandIndex3
                    {
                      OFFSET 2.2628 -0.552002 0.3989
                      CHANNELS 3 Zrotation Xrotation Yrotation
                      End Site
                      {
                        OFFSET 1.6102 -0.4807 0.2612
                      }
                    }
                  }
                }
                JOINT LeftHandMiddle1
                {
                  OFFSET 8.9937 0.895004 0.2143
                  CHANNELS 3 Zrotation Xrotation Yrotation
                  JOINT LeftHandMiddle2
                  {
                    OFFSET 4.0984 0.0113983 -0.0242
                    CHANNELS 3 Zrotation Xrotation Yrotation
                    JOINT LeftHandMiddle3
                    {
                      OFFSET 2.2716 0.00689697 -0.0138001
                      CHANNELS 3 Zrotation Xrotation Yrotation
                      End Site
                      {
                        OFFSET 2.0404 -0.1441 0.0027
                      }
                    }
                  }
                }
                JOINT LeftHandRing1
                {
                  OFFSET 8.5234 0.597198 -2.0164
                  CHANNELS 3 Zrotation Xrotation Yrotation
                  JOINT LeftHandRing2
                  {
                    OFFSET 3.7188 -0.188293 -0.2328
                    CHANNELS 3 Zrotation Xrotation Yrotation
                    JOINT LeftHandRing3
                    {
                      OFFSET 2.1191 -0.106598 -0.1332
                      CHANNELS 3 Zrotation Xrotation Yrotation
                      End Site
                      {
                        OFFSET 1.8737 -0.2304 -0.0886
                      }
                    }
                  }
                }
                JOINT LeftHandPinky1
                {
                  OFFSET 7.9094 -0.601089 -3.4825
                  CHANNELS 3 Zrotation Xrotation Yrotation
                  JOINT LeftHandPinky2
                  {
                    OFFSET 2.2874 -0.477005 -0.6314
                    CHANNELS 3 Zrotation Xrotation Yrotation
                    JOINT LeftHandPinky3
                    {
                      OFFSET 1.6774 -0.349396 -0.4633
                      CHANNELS 3 Zrotation Xrotation Yrotation
                      End Site
                      {
                        OFFSET 1.4888 -0.4091 -0.3416
                      }
                    }
                  }
                }
                JOINT LeftHandThumb1
                {
                  OFFSET 1.833 -1.3875 1.3896
                  CHANNELS 3 Zrotation Xrotation Yrotation
                  JOINT LeftHandThumb2
                  {
                    OFFSET 3.4129 -1.121 2.5732
                    CHANNELS 3 Zrotation Xrotation Yrotation
                    JOINT LeftHandThumb3
                    {
                      OFFSET 2.2474 -0.804199 1.6192
                      CHANNELS 3 Zrotation Xrotation Yrotation
                      End Site
                      {
                        OFFSET 1.6527 -0.5689 1.1317
                      }
                    }
                  }
                }
              }
            }
          }
        }
        JOINT RightShoulder
        {
          OFFSET -2.2086 21.1115 7.2329
          CHANNELS 3 Zrotation Xrotation Yrotation
          JOINT RightArm
          {
            OFFSET -13.1216 3.0287 -4.9007
            CHANNELS 3 Zrotation Xrotation Yrotation
            JOINT RightForeArm
            {
              OFFSET -27.4081 -0.0973053 -0.2375
              CHANNELS 3 Zrotation Xrotation Yrotation
              JOINT RightHand
              {
                OFFSET -22.8641 0.0664063 -0.1369
                CHANNELS 3 Zrotation Xrotation Yrotation
                JOINT RightHandIndex1
                {
                  OFFSET -8.8614 0.774994 2.4612
                  CHANNELS 3 Zrotation Xrotation Yrotation
                  JOINT RightHandIndex2
                  {
                    OFFSET -3.3146 -0.808304 0.5841
                    CHANNELS 3 Zrotation Xrotation Yrotation
                    JOINT RightHandIndex3
                    {
                      OFFSET -2.2628 -0.552002 0.3989
                      CHANNELS 3 Zrotation Xrotation Yrotation
                      End Site
                      {
                        OFFSET -1.6102 -0.4807 0.2612
                      }
                    }
                  }
                }
                JOINT RightHandMiddle1
                {
                  OFFSET -8.9937 0.894989 0.2143
                  CHANNELS 3 Zrotation Xrotation Yrotation
                  JOINT RightHandMiddle2
                  {
                    OFFSET -4.0984 0.0113983 -0.0242
                    CHANNELS 3 Zrotation Xrotation Yrotation
                    JOINT RightHandMiddle3
                    {
                      OFFSET -2.2716 0.00691223 -0.0138001
                      CHANNELS 3 Zrotation Xrotation Yrotation
                      End Site
                      {
                        OFFSET -2.0404 -0.1441 0.0027
                      }
                    }
                  }
                }
                JOINT RightHandRing1
                {
                  OFFSET -8.5234 0.597198 -2.0164
                  CHANNELS 3 Zrotation Xrotation Yrotation
                  JOINT RightHandRing2
                  {
                    OFFSET -3.7188 -0.188309 -0.2328
                    CHANNELS 3 Zrotation Xrotation Yrotation
                    JOINT RightHandRing3
                    {
                      OFFSET -2.1191 -0.106598 -0.1332
                      CHANNELS 3 Zrotation Xrotation Yrotation
                      End Site
                      {
                        OFFSET -1.8737 -0.2304 -0.0886
                      }
                    }
                  }
                }
                JOINT RightHandPinky1
                {
                  OFFSET -7.9094 -0.601105 -3.4825
                  CHANNELS 3 Zrotation Xrotation Yrotation
                  JOINT RightHandPinky2
                  {
                    OFFSET -2.2874 -0.477005 -0.6314
                    CHANNELS 3 Zrotation Xrotation Yrotation
                    JOINT RightHandPinky3
                    {
                      OFFSET -1.6774 -0.349396 -0.4633
                      CHANNELS 3 Zrotation Xrotation Yrotation
                      End Site
                      {
                        OFFSET -1.4888 -0.4091 -0.3416
                      }
                    }
                  }
                }
                JOINT RightHandThumb1
                {
                  OFFSET -1.833 -1.38751 1.3896
                  CHANNELS 3 Zrotation Xrotation Yrotation
                  JOINT RightHandThumb2
                  {
                    OFFSET -3.41299 -1.12099 2.5732
                    CHANNELS 3 Zrotation Xrotation Yrotation
                    JOINT RightHandThumb3
                    {
                      OFFSET -2.24741 -0.804108 1.6192
                      CHANNELS 3 Zrotation Xrotation Yrotation
                      End Site
                      {
                        OFFSET -1.6527 -0.5689 1.1317
                      }
                    }
                  }
                }
              }
            }
          }
        }
      }
    }
  }
  JOINT RightUpLeg
  {
    OFFSET -9.1966 3.8861 -0.7581
    CHANNELS 3 Zrotation Xrotation Yrotation
    JOINT RightLeg
    {
      OFFSET -0.7359 -41.0265 0
      CHANNELS 3 Zrotation Xrotation Yrotation
      JOINT RightFoot
      {
        OFFSET 0 -40.2855 0
        CHANNELS 3 Zrotation Xrotation Yrotation
        JOINT RightToeBase
        {
          OFFSET 0 -5.6122 11.7359
          CHANNELS 3 Zrotation Xrotation Yrotation
          End Site
          {
            OFFSET 0 0 7.8731
          }
        }
      }
    }
  }
  JOINT LeftUpLeg
  {
    OFFSET 9.1965 3.8864 -0.7581
    CHANNELS 3 Zrotation Xrotation Yrotation
    JOINT LeftLeg
    {
      OFFSET 0.7359 -41.0268 0
      CHANNELS 3 Zrotation Xrotation Yrotation
      JOINT LeftFoot
      {
        OFFSET 0 -40.2855 0
        CHANNELS 3 Zrotation Xrotation Yrotation
        JOINT LeftToeBase
        {
          OFFSET 0 -5.6122 11.7359
          CHANNELS 3 Zrotation Xrotation Yrotation
          End Site
          {
            OFFSET 0 0 7.8731
          }
        }
      }
    }
  }
}
MOTION
Frames:	4
Frame Time:	0.0333333
-8.05654 5.63436 9.08757 -90 0 -0 2.3718 2.40519 -7.36036 5.03849 4.48434 -14.8312 5.0385 4.48434 -14.8312 24.2835 -1.82543 0.820824 8.57229 3.43251 0.0407907 -4.91105 -11.9596 24.6584 -63.2812 15.3625 -42.6572 -16.2888 -1.35676 0.129942 9.62746e-007 2.85353e-007 3.60612e-007 7.70197e-007 2.28282e-007 2.8849e-007 3.85098e-007 1.14141e-007 1.44245e-007 7.70197e-007 2.28282e-007 2.8849e-007 7.70197e-007 2.28282e-007 2.8849e-007 -0.0146197 -8.43152e-005 -9.06682e-007 7.70199e-007 2.28245e-007 2.88518e-007 7.70197e-007 2.28282e-007 2.8849e-007 -0.01872 -0.00117271 6.16348e-005 7.70203e-007 2.28235e-007 2.88519e-007 7.70197e-007 2.28282e-007 2.8849e-007 -0.0122436 -0.00323826 0.000673178 7.70208e-007 2.28247e-007 2.88492e-007 7.70197e-007 2.28282e-007 2.8849e-007 3.85098e-007 1.14141e-007 1.44245e-007 7.70197e-007 2.28282e-007 2.8849e-007 -96.556 -71.5414 -147.051 -13.705 -12.1058 -15.3945 33.212 27.5514 -0.214171 4.86532 53.056 -34.1421 3.63987e-007 1.33873e-006 -4.47954e-007 1.98626e-031 4.77083e-015 -2.38542e-015 -3.18055e-015 7.95139e-015 -7.95139e-016 3.63987e-007 1.33873e-006 -4.47954e-007 0.0149536 -9.53685e-005 8.84501e-007 3.65272e-007 1.33866e-006 -4.48129e-007 3.63987e-007 1.33873e-006 -4.47954e-007 0.0189897 -0.00118495 -5.88093e-005 -3.18055e-015 0 -7.95139e-016 3.63987e-007 1.33873e-006 -4.47954e-007 0.0122637 -0.00324416 -0.000680529 -6.36111e-015 4.77083e-015 -2.38542e-015 3.63987e-007 1.33873e-006 -4.47954e-007 1.98626e-031 4.77083e-015 -2.38542e-015 -3.18055e-015 7.95139e-015 -7.95139e-016 -6.63444 -13.4531 1.71539 57.5525 23.8567 -85.2207 13.7336 32.9195 14.6984 1.96575e-006 -5.16719e-008 1.47165e-006 5.49575 13.0724 8.68826 4.9622 71.9049 -6.65773 2.26324 3.18268 2.94107 3.59058e-006 2.94736e-006 3.74075e-006 
-8.05441 5.63455 8.69736 -90 0 -0 2.33989 2.69987 -7.21823 5.00858 5.08164 -14.5624 5.00858 5.08165 -14.5625 24.1684 -1.82711 0.817073 8.5081 3.51972 0.0339894 -3.89546 -12.97 24.6317 -63.5768 15.5862 -43.0237 -16.6489 -1.29136 0.129241 -1.10557e-006 3.02369e-006 -1.46387e-007 -4.34808e-007 -3.4802e-006 -4.30833e-007 1.92547e-007 5.70637e-008 7.21525e-008 -4.34808e-007 -3.4802e-006 -4.30833e-007 -4.34808e-007 -3.4802e-006 -4.30833e-007 -0.0145845 -8.45938e-005 -1.59932e-006 -4.3496e-007 -3.48014e-006 -4.31276e-007 -4.34808e-007 -3.4802e-006 -4.30833e-007 -0.0187183 -0.00117875 6.42545e-005 -4.35009e-007 -3.48014e-006 -4.31397e-007 -4.34808e-007 -3.4802e-006 -4.30833e-007 -0.0122699 -0.00325194 0.00067335 -4.34968e-007 -3.48018e-006 -4.31187e-007 -4.34808e-007 -3.4802e-006 -4.30833e-007 1.92547e-007 5.70637e-008 7.21525e-008 -4.34808e-007 -3.4802e-006 -4.30833e-007 -98.1302 -70.7343 -149.446 -13.705 -12.1058 -15.3945 32.9455 27.0577 -0.211644 6.7965 52.9703 -35.4989 3.69951e-007 -3.08992e-007 1.82815e-006 2.11925e-006 1.37008e-006 3.11132e-007 -2.39773e-007 3.07432e-006 3.70477e-009 3.69951e-007 -3.08992e-007 1.82815e-006 0.01501 -8.86399e-005 1.29552e-006 3.18055e-015 -1.59028e-015 1.59028e-015 3.69951e-007 -3.08992e-007 1.82815e-006 0.0190071 -0.00119017 -5.46664e-005 6.36111e-015 -6.36111e-015 2.38542e-015 3.69951e-007 -3.08992e-007 1.82815e-006 0.0123001 -0.00325391 -0.000673914 0 3.18055e-015 -0 3.69951e-007 -3.08992e-007 1.82815e-006 2.11925e-006 1.37008e-006 3.11132e-007 -2.39773e-007 3.07432e-006 3.70477e-009 -6.69136 -13.7464 1.56629 57.5358 23.8529 -85.2256 13.556 32.9963 14.5424 3.17896e-006 1.21322e-006 1.61973e-006 5.50595 12.4884 8.75253 5.447 72.6262 -7.09416 2.26125 3.179 2.94118 3.58525e-006 2.95222e-006 3.7448e-006 
-8.0523 5.63474 8.30712 -90 0 -0 2.30662 2.99434 -7.07593 4.97468 5.67872 -14.2934 4.9747 5.67872 -14.2934 24.0527 -1.82875 0.813471 8.44392 3.60695 0.0272709 -2.8768 -13.98 24.6233 -63.8711 15.8116 -43.3893 -17.0087 -1.22421 0.128525 -3.8507e-007 -1.14077e-007 -1.44442e-007 6.36111e-015 -1.59028e-014 3.18055e-015 3.18055e-015 -1.90833e-014 3.18055e-015 3.18055e-015 -2.22639e-014 1.27222e-014 6.36111e-015 -1.59028e-014 3.18055e-015 -0.0145983 -8.83736e-005 -3.1533e-006 -3.53113e-031 6.36111e-015 3.18055e-015 6.36111e-015 -1.59028e-014 3.18055e-015 -0.0187561 -0.00117656 5.76932e-005 3.18055e-015 0 -6.36111e-015 6.36111e-015 -1.59028e-014 3.18055e-015 -0.0123091 -0.00326454 0.000678501 -3.18055e-015 6.36111e-015 6.36111e-015 6.36111e-015 -1.59028e-014 3.18055e-015 3.18055e-015 -1.90833e-014 3.18055e-015 3.18055e-015 -2.22639e-014 1.27222e-014 -99.5426 -69.908 -151.68 -13.705 -12.1058 -15.3944 32.6724 26.5707 -0.209243 8.71842 52.8572 -36.8463 3.71878e-007 -2.9397e-007 1.82977e-006 1.02941e-006 -1.27946e-007 1.31507e-006 3.71878e-007 -2.9397e-007 1.82977e-006 3.71878e-007 -2.9397e-007 1.82977e-006 0.0149938 -9.25588e-005 2.02666e-006 3.71915e-007 -2.9373e-007 1.82981e-006 3.71878e-007 -2.9397e-007 1.82977e-006 0.0189801 -0.00119104 -5.90655e-005 3.71942e-007 -2.93669e-007 1.82982e-006 3.71878e-007 -2.9397e-007 1.82977e-006 0.0122285 -0.00323131 -0.000671381 2.1997e-007 8.86641e-007 1.81357e-006 3.71878e-007 -2.9397e-007 1.82977e-006 1.02941e-006 -1.27946e-007 1.31507e-006 3.71878e-007 -2.9397e-007 1.82977e-006 -6.74912 -14.0391 1.4167 57.5189 23.8488 -85.23 13.3784 33.0735 14.3866 -2.67018e-007 -1.16713e-006 -1.49078e-007 5.51657 11.9048 8.81702 5.9719 73.3457 -7.57061 2.25928 3.17538 2.94132 -8.44633e-008 -1.82605e-007 3.66437e-006 
-8.05021 5.63493 7.91685 -90 0 -0 2.272 3.28854 -6.93345 4.93677 6.27546 -14.0239 4.93679 6.27547 -14.0239 23.9371 -1.83032 0.809774 8.37973 3.69416 0.0206771 -1.85468 -14.9889 24.6335 -64.1642 16.0389 -43.7541 -17.3681 -1.15524 0.127788 -1.92514e-007 -5.69939e-008 -7.23277e-008 -6.36111e-015 -1.90833e-014 -0 -3.18055e-015 -3.18055e-015 3.18055e-015 -9.54166e-015 -1.90833e-014 3.18055e-015 -6.36111e-015 -1.90833e-014 -0 -0.0146193 -9.19678e-005 3.57435e-007 9.54166e-015 3.18055e-015 -0 -6.36111e-015 -1.90833e-014 -0 -0.0187453 -0.00117428 5.8313e-005 -0 0 3.18055e-015 -6.36111e-015 -1.90833e-014 -0 -0.0122986 -0.00325877 0.000679978 7.34794e-007 -1.52325e-006 -5.08582e-007 -6.36111e-015 -1.90833e-014 -0 -3.18055e-015 -3.18055e-015 3.18055e-015 -9.54166e-015 -1.90833e-014 3.18055e-015 -100.809 -69.065 -153.77 -13.705 -12.1058 -15.3944 32.3929 26.0906 -0.206986 10.6285 52.7172 -38.1819 -4.58492e-007 1.46319e-006 -1.88609e-006 -1.0317e-006 1.14933e-007 -1.31536e-006 -3.74016e-007 2.79198e-007 -1.83121e-006 -4.58492e-007 1.46319e-006 -1.88609e-006 0.0149702 -8.8894e-005 -4.47588e-007 -4.57252e-007 1.46294e-006 -1.88628e-006 -4.58492e-007 1.46319e-006 -1.88609e-006 0.0189832 -0.00119309 -5.94571e-005 -3.7408e-007 2.78897e-007 -1.83125e-006 -4.58492e-007 1.46319e-006 -1.88609e-006 0.0122565 -0.00323817 -0.000679442 -3.74099e-007 2.79008e-007 -1.83123e-006 -4.58492e-007 1.46319e-006 -1.88609e-006 -1.0317e-006 1.14933e-007 -1.31536e-006 -3.74016e-007 2.79198e-007 -1.83121e-006 -6.80777 -14.3311 1.26664 57.5018 23.8445 -85.2339 13.2008 33.151 14.2309 -9.42087e-007 -9.129e-008 -2.11703e-009 5.52762 11.3215 8.88167 6.54199 74.0634 -8.09211 2.25734 3.17184 2.94143 8.91376e-008 1.78611e-007 -3.66371e-006 
